<svg xmlns="http://www.w3.org/2000/svg" width="256" height="32" viewBox="0 0 256 32"><path d="M237.32 18.733c.624-1.222 1.367-2.564 2.23-4.027s1.84-2.92 2.93-4.376c1.09-1.454 1.886-2.42 2.385-2.895.5-.475.923-.853 1.27-1.133.346-.28.96-.483 1.84-.61.88-.128 1.547-.192 2-.192.3 0 .545.086.736.258.2.172.29.397.29.677 0 .216-.05.4-.16.558-.11.155-.34.39-.69.7-1.68 1.448-3.43 3.51-5.25 6.186-1.82 2.67-3.26 5.27-4.33 7.78-.5 1.15-.83 1.82-.97 2.02-.14.2-.36.38-.66.56-.3.17-.914.26-1.844.26-.74 0-1.21-.05-1.41-.13-.21-.09-.37-.18-.48-.27-.11-.1-.43-.51-.95-1.25-.536-.78-1.32-1.69-2.344-2.75-.59-.61-.883-1.12-.883-1.52 0-.6.335-1.11 1.007-1.55.67-.44 1.26-.66 1.776-.66.563 0 1.165.21 1.81.64.64.43 1.216 1 1.73 1.71z"/><path fill="none" stroke="#666" stroke-miterlimit="10" d="M212 11.5h-18"/><path fill="none" stroke="gray" stroke-miterlimit="10" d="M212 14.5h-18m18 3h-18"/><path fill="none" stroke="#666" stroke-miterlimit="10" d="M212 23.5h-18m18-3h-18m18-12h-18"/><ellipse cx="213.279" cy="16" rx="8.346" ry="8.5"/><path d="M165 15.97c0-3.857 1.323-7.277 3.344-9.97.887.23 1.473.726 1.908 1.395-1.683 2.56-2.532 5.54-2.532 8.54 0 3.132.944 5.958 2.87 8.632-.415.69-1.302 1.186-2.17 1.34-2.495-3.402-3.42-6.822-3.42-9.936zm9.22.928c.126 1.336 1.187 1.985 3.286 1.985 1.357 0 2.545-.266 3.31-.572.06.73-.276 1.67-.765 2.16-.69.37-1.88.67-3.35.67-3.71 0-5.68-1.93-5.68-5.02 0-3.19 2.12-5.25 5.45-5.25 3.1 0 4.52 1.72 4.52 4.24 0 .62-.13 1.3-.32 1.8h-6.44zm3.88-2.006c.168-.993-.234-1.967-1.76-1.967-1.314 0-2.12.763-2.207 1.967h3.967zm6.18.984c0-3.056-.87-5.96-2.437-8.405.34-.64 1.17-1.28 2.02-1.47C186.17 9.16 187 12.8 187 15.75c0 3.36-1.04 6.838-3.42 10.258-.85-.17-1.7-.705-2.077-1.355 1.87-2.79 2.777-5.54 2.777-8.77z"/><path fill="none" stroke="#000" stroke-width="2" stroke-miterlimit="10" d="M132 7h24v18h-24z"/><circle cx="139" cy="13" r="3"/><path d="M146 22l3-6 3 6"/><path fill="none" stroke="#000" stroke-width="2" stroke-miterlimit="10" d="M141.5 21l-2.5-4.5 2.5-4.5h5l2.5 4.5-2.5 4.5z"/><g fill="none" stroke="#000" stroke-width="2" stroke-miterlimit="10"><path d="M100 7h24v18h-24z"/><path d="M101 21l7-5 3 3 8-7 4 5"/></g><path d="M73.522 22.84c-.475 1.014-1.49 1.66-2.98 1.66-1.9 0-3.542-1.014-3.542-3.687 0-2.81 1.9-3.893 4.406-3.893.712 0 1.34.092 1.965.3v-.322c0-1.405-.64-1.912-2.07-1.912-1.25 0-2.48.37-3.45.967-.26-.898-.15-2.326.35-3.086.78-.46 2.12-.76 3.72-.76 3.11 0 4.6 1.175 4.6 4.584v3.99c0 .72.3.88.74.88.37 0 .718-.11.93-.27.09.92-.17 2.05-.56 2.7-.45.32-1.053.53-1.79.53-1.25 0-1.9-.57-2.113-1.66h-.172zm-.087-3.408c-.432-.184-.906-.275-1.424-.275-1.25 0-1.87.552-1.87 1.427 0 .9.63 1.222 1.49 1.222.69 0 1.38-.23 1.82-.807v-1.57zm15.117.83h-5.464l-1.08 3.547c-.367.23-.95.32-1.685.32-.82 0-1.295-.12-1.642-.32l5.23-16.08c.46-.14 1.17-.23 1.95-.23.8 0 1.51.09 1.97.23L93 23.81c-.302.207-.863.32-1.684.32s-1.317-.113-1.685-.32l-1.07-3.548zm-.843-2.834l-.83-2.718c-.43-1.428-.76-3.11-1-4.723h-.18c-.24 1.682-.63 3.41-1.04 4.792l-.8 2.64h3.83zM9.05 8c.667.406 1.508 1.39 1.948 2.377l-5.156 5.217v.232l4.964 5.13c-.152 1.158-.802 2.553-1.49 3.043L3 17.24c0-1.072.076-2.26.305-3.13L9.052 8zm5.186 18.155c-.97.07-2.058-.297-2.57-.81l6.03-19.495c1.033-.076 1.91.05 2.605.404l-6.06 19.9zM22.63 24c-.71-.522-1.36-1.94-1.515-3.076l5.007-5.01v-.234L21 10.32c.518-1.015 1.248-1.856 2.033-2.32l5.66 5.942c.21.87.307 2.06.307 3.102L22.63 24zm15.84-9.413c1.132-.135 1.438-.556 1.438-1.883V10.4c0-2.287.943-4.38 5.513-4.4 0 .903-.18 1.71-.56 2.305-1.2.077-1.67.538-1.67 1.633v3.016c0 1.42-.44 2.363-1.79 2.708v.153c1.27.29 1.79 1.153 1.79 2.557v3.534c0 1.25.64 1.69 2.1 1.73.24.537.14 1.882-.21 2.362-4.48-.02-5.16-1.825-5.16-4.284v-2.9c0-1.096-.26-1.788-1.91-1.923 0-.8.19-1.76.47-2.3zm17.598-4.245v2.382c0 1.077.26 1.806 1.436 1.864.308.576.496 1.46.496 2.305-1.602.077-1.932.653-1.932 1.787v2.883c0 2.9-.92 4.38-5.135 4.438-.376-.48-.47-1.82-.21-2.36 1.6-.02 2.072-.55 2.072-1.94v-3.17c0-1.54.542-2.38 1.79-2.69v-.15c-1.39-.34-1.79-1.25-1.79-2.57v-3.1c0-1.23-.566-1.65-2.027-1.74 0-.77.307-1.67.754-2.23 3.958.4 4.546 2.04 4.546 4.3z"/></svg>